<?xml version="1.0" encoding="utf-8"?>
<!-- Generator: Adobe Illustrator 18.1.0, SVG Export Plug-In . SVG Version: 6.00 Build 0)  -->
<svg version="1.1" id="Layer_1" xmlns="http://www.w3.org/2000/svg" xmlns:xlink="http://www.w3.org/1999/xlink" x="0px" y="0px"
	 viewBox="0 0 612 207" enable-background="new 0 0 612 207" xml:space="preserve">
<g>
	<path fill="#FFFFFF" d="M415.2,28.7v-4.3h-21.5v4.3h8.1v39.2h4.8V28.7H415.2z M358.4,67.4h4.8v-43h-4.3V55l0,0l-11-30.6h-5.3v43
		h4.3v-33l0,0L358.4,67.4z M302.4,130l8.1-24.8h-4.8l-5.7,18.6l-5.7-18.6H289l8.1,24.8v18.2h4.8V130H302.4z M292.4,67.4h17.2v-4.3
		h-12.4V47.3h9.6V43h-9.6V28.7h11.9v-4.3h-17.2v43L292.4,67.4L292.4,67.4z M258,57.8V24.3h-4.8v33.5c0,3.3-1.4,5.7-5.3,5.7
		c-2.9,0-5.3-1.9-5.3-6.2V23.8h-4.8v34.4c0,6.7,4.3,9.6,10,9.6C253.7,68.3,258,64.5,258,57.8 M135.2,67.4h17.2v-4.3H140V47.3h9.6V43
		H140V28.7h11.9v-4.3h-17.2v43L135.2,67.4L135.2,67.4z M101.7,67.4l-6.2-20.1c3.3-1,5.7-5.3,5.7-11c0-7.6-3.3-11.9-10-11.9h-9.6v43
		h4.8V48.8h4.3l5.7,18.6H101.7z M90.7,44.9h-4.3V28.7h4.3c4.3,0,5.7,3.8,5.7,8.1C96,42,94.6,44.9,90.7,44.9 M35.8,28.7h11.9v-4.3H31
		v43h4.8V47.3h9.6V43h-9.6C35.8,43,35.8,28.7,35.8,28.7z M245.1,105.1h-4.8v43h17.2v-4.3h-12.4V105.1z M361.7,105.1h-17.2v43h17.2
		v-4.3h-12.4v-16.2h9.6v-4.3h-9.6V109h11.9v-3.8h0.5V105.1z M404.7,105.1h-9.6v43h4.8v-18.6h4.3l5.7,18.6h4.8l-6.2-20.1
		c3.3-1,5.7-5.3,5.7-11C414.7,109.4,411.4,105.1,404.7,105.1 M404.2,109.4c4.3,0,5.7,3.8,5.7,8.1c0,5.3-1.9,8.1-5.3,8.1h-4.3v-16.2
		C400.4,109.4,404.2,109.4,404.2,109.4z"/>
	<path fill="#FFFFFF" d="M201.1,57.8c0,3.3-1.9,5.7-5.7,5.7s-5.7-2.4-5.7-5.7V33.9c0-3.3,1.9-5.7,5.3-5.7c3.8,0,5.7,2.4,5.7,5.3
		v24.4L201.1,57.8L201.1,57.8z M203,65c1.9-1.4,3.3-4.3,3.3-7.6V33.5c0-6.7-4.8-9.6-10.5-9.6c-6.2,0-10.5,3.3-10.5,10v23.9
		c0,6.7,4.3,10,10.5,10c1,0,1.9,0,2.9-0.5l6.2,4.3l2.9-3.8L203,65z M187.7,105.1v43h4.8V128h9.6v-4.3h-9.6v-14.3h11.9v-4.3
		L187.7,105.1L187.7,105.1z"/>
	<path fill="#FFFFFF" d="M447.2,24.4v32c0,1,0,2.9,0.5,3.8c5.3,16.7,35.8,10,55.4,38.2c0,0,3.8,0.5,6.2-4.3c0,0-5.3-0.5-5.7-4.3
		c0,0,11,1.9,17.2,7.2c0,0,0,2.4-7.6,2.4c-1.4,0-1.9,0-4.3,2.4c0,0-6.2,6.7-11.9,6.2c-1.9,0-3.3-1-3.3-1.4c0,0-0.5-1,1-0.5
		c0,0,3.3,1,4.8-0.5c0,0-1.4-1.9-3.8-1.9c-1.4,0-2.9,0.5-3.8,1.9c0,0-4.8,6.2,9.1,12.4c20.1,8.6,31.5,22,29.6,25.3
		c-1.9-1.4-18.2-22-46.4-24.4c0,0,0-0.5,0.5-1c2.9-14.3-3.8-23.9-11-29.2c-7.6-6.2-22-11-26.3-24.4V147H582L447.2,24.4z"/>
</g>
</svg>
