<?xml version="1.0" encoding="utf-8"?>
<!-- Generator: Adobe Illustrator 18.1.0, SVG Export Plug-In . SVG Version: 6.00 Build 0)  -->
<svg version="1.1" id="Layer_1" xmlns="http://www.w3.org/2000/svg" xmlns:xlink="http://www.w3.org/1999/xlink" x="0px" y="0px"
	 viewBox="0 0 612 792" enable-background="new 0 0 612 792" xml:space="preserve">
<g>
	<path fill="#FFFFFF" d="M415.2,338.7v-4.3h-21.5v4.3h8.1v39.2h4.8v-39.2H415.2z M358.4,377.4h4.8v-43h-4.3V365l0,0l-11-30.6h-5.3
		v43h4.3v-33l0,0L358.4,377.4z M302.4,440l8.1-24.8h-4.8l-5.7,18.6l-5.7-18.6h-5.3l8.1,24.8v18.2h4.8V440H302.4z M292.4,377.4h17.2
		v-4.3h-12.4v-15.8h9.6V353h-9.6v-14.3h11.9v-4.3h-17.2v43H292.4z M258,367.8v-33.5h-4.8v33.5c0,3.3-1.4,5.7-5.3,5.7
		c-2.9,0-5.3-1.9-5.3-6.2v-33.5h-4.8v34.4c0,6.7,4.3,9.6,10,9.6C253.7,378.3,258,374.5,258,367.8 M135.2,377.4h17.2v-4.3H140v-15.8
		h9.6V353H140v-14.3h11.9v-4.3h-17.2v43H135.2z M101.7,377.4l-6.2-20.1c3.3-1,5.7-5.3,5.7-11c0-7.6-3.3-11.9-10-11.9h-9.6v43h4.8
		v-18.6h4.3l5.7,18.6H101.7z M90.7,354.9h-4.3v-16.2h4.3c4.3,0,5.7,3.8,5.7,8.1C96,352,94.6,354.9,90.7,354.9 M35.8,338.7h11.9v-4.3
		H31v43h4.8v-20.1h9.6V353h-9.6V338.7z M245.1,415.1h-4.8v43h17.2v-4.3h-12.4V415.1z M361.7,415.1h-17.2v43h17.2v-4.3h-12.4v-16.2
		h9.6v-4.3h-9.6V419h11.9v-3.8H361.7z M404.7,415.1h-9.6v43h4.8v-18.6h4.3l5.7,18.6h4.8l-6.2-20.1c3.3-1,5.7-5.3,5.7-11
		C414.7,419.4,411.4,415.1,404.7,415.1 M404.2,419.4c4.3,0,5.7,3.8,5.7,8.1c0,5.3-1.9,8.1-5.3,8.1h-4.3v-16.2
		C400.4,419.4,404.2,419.4,404.2,419.4z"/>
	<path fill="#FFFFFF" d="M201.1,367.8c0,3.3-1.9,5.7-5.7,5.7c-3.8,0-5.7-2.4-5.7-5.7v-23.9c0-3.3,1.9-5.7,5.3-5.7
		c3.8,0,5.7,2.4,5.7,5.3v24.4H201.1z M203,375c1.9-1.4,3.3-4.3,3.3-7.6v-23.9c0-6.7-4.8-9.6-10.5-9.6c-6.2,0-10.5,3.3-10.5,10v23.9
		c0,6.7,4.3,10,10.5,10c1,0,1.9,0,2.9-0.5l6.2,4.3l2.9-3.8L203,375z M187.7,415.1v43h4.8v-20.1h9.6v-4.3h-9.6v-14.3h11.9v-4.3H187.7
		z"/>
	<path fill="#FFFFFF" d="M447.2,334.4v32c0,1,0,2.9,0.5,3.8c5.3,16.7,35.8,10,55.4,38.2c0,0,3.8,0.5,6.2-4.3c0,0-5.3-0.5-5.7-4.3
		c0,0,11,1.9,17.2,7.2c0,0,0,2.4-7.6,2.4c-1.4,0-1.9,0-4.3,2.4c0,0-6.2,6.7-11.9,6.2c-1.9,0-3.3-1-3.3-1.4c0,0-0.5-1,1-0.5
		c0,0,3.3,1,4.8-0.5c0,0-1.4-1.9-3.8-1.9c-1.4,0-2.9,0.5-3.8,1.9c0,0-4.8,6.2,9.1,12.4c20.1,8.6,31.5,22,29.6,25.3
		c-1.9-1.4-18.2-22-46.4-24.4c0,0,0-0.5,0.5-1c2.9-14.3-3.8-23.9-11-29.2c-7.6-6.2-22-11-26.3-24.4v82.7H582L447.2,334.4z"/>
</g>
</svg>
