<?xml version="1.0" encoding="utf-8"?>
<!-- Generator: Adobe Illustrator 18.1.0, SVG Export Plug-In . SVG Version: 6.00 Build 0)  -->
<svg version="1.1" id="Layer_1" xmlns="http://www.w3.org/2000/svg" xmlns:xlink="http://www.w3.org/1999/xlink" x="0px" y="0px"
	 viewBox="0 0 316.4 96.7" enable-background="new 0 0 316.4 96.7" xml:space="preserve">
<path fill="#414042" d="M214.4,18.5v-2.2h-11v2.2h4.3v20.1h2.5V18.5H214.4z M185,38.6h2.3V16.4h-2.2v15.8H185l-5.7-15.8h-2.7v22.2
	h2.2V21.5h0.1L185,38.6z M156.3,70.7l4.2-12.8h-2.4l-2.9,9.6l-3-9.6h-2.6l4.3,12.8v9.5h2.5V70.7z M151,38.6h8.8v-2.2h-6.3v-8.3h5
	v-2.2h-5v-7.4h6.3v-2.2H151V38.6z M133.3,33.7V16.4h-2.4v17.3c0,1.7-0.8,3-2.7,3c-1.5,0-2.8-0.9-2.8-3.1V16.4h-2.6v17.5
	c0,3.4,2.2,5,5.2,5C131.2,38.9,133.3,36.9,133.3,33.7 M70.2,38.6H79v-2.2h-6.3v-8.3h5v-2.2h-5v-7.4h6.3v-2.2h-8.8V38.6z M52.8,38.6
	l-3.2-10.3c1.8-0.6,3-2.7,3-5.8c0-3.9-1.7-6.2-5.3-6.2h-4.8v22.2H45v-9.7h2.2l3,9.7H52.8z M47.2,26.9H45v-8.4h2.2
	c2.2,0,2.9,2,2.9,4.2C50,25.5,49.1,26.9,47.2,26.9 M19,18.5h6.2v-2.2h-8.7l0,22.2H19V28.2h5V26h-5V18.5z M126.7,57.9h-2.5v22.2h8.8
	v-2.2h-6.3V57.9z M186.7,57.9h-8.8v22.2h8.8v-2.2h-6.3v-8.3h5v-2.2h-5v-7.4h6.3V57.9z M208.9,57.9H204v22.2l2.5,0v-9.7h2.2l3,9.7
	h2.6l-3.2-10.3c1.8-0.6,3-2.6,3-5.8C214.1,60.2,212.4,57.9,208.9,57.9 M208.7,60.1c2.2,0,2.9,2,2.9,4.2c0,2.7-0.9,4.2-2.8,4.2h-2.2
	v-8.4H208.7z"/>
<path fill="#ED1C24" d="M104.1,33.7c0,1.6-0.9,3-2.8,3c-1.9,0-2.9-1.3-2.9-3V21.2c0-1.6,0.9-2.9,2.8-2.9c1.9,0,2.9,1.1,2.9,2.8V33.7
	z M104.9,37.4c1-0.8,1.7-2.1,1.7-3.9V21c0-3.4-2.4-5-5.3-5c-3.2,0-5.5,1.8-5.5,5.3v12.3c0,3.5,2.2,5.3,5.4,5.3
	c0.5,0,1.1-0.1,1.5-0.3l3.2,2.3l1.6-2L104.9,37.4z M97.3,57.9v22.2h2.5V69.7h5v-2.2h-5v-7.4h6.2v-2.2H97.3z"/>
<g>
	<polygon fill="#ED1C24" points="230.6,80.1 299.9,80.1 230.6,16.4 	"/>
	<g>
		<path fill="#FFFFFF" d="M230.6,32.9c0,0.5,0.1,1.5,0.3,2.1c2.8,8.7,18.4,5.2,28.6,19.8c0,0,1.9,0.2,3.2-2.1c0,0-2.7-0.2-2.9-2.2
			c0,0,5.5,1.1,8.9,3.8c0,0,0,1.2-3.8,1.2c-0.8,0.1-1.1,0.1-2.3,1.3c0,0-3.1,3.4-6.3,3.3c-1,0-1.7-0.4-1.7-0.7c0,0-0.1-0.4,0.6-0.3
			c0,0,1.7,0.5,2.5-0.3c0,0-0.7-1-2-1c-0.8,0-1.5,0.2-2.1,0.9c0,0-2.5,3.1,4.6,6.5c10.4,4.5,16.2,11.2,15.3,13c0,0,0,0,0,0
			c-1-0.7-9.4-11.2-24-12.4c0,0,0.1-0.2,0.1-0.5c1.5-7.3-1.9-12.2-5.7-15c-3.9-3.1-11.2-5.7-13.4-12.6V32.9z"/>
	</g>
</g>
</svg>
