<?xml version="1.0" encoding="utf-8"?>
<!-- Generator: Adobe Illustrator 18.1.0, SVG Export Plug-In . SVG Version: 6.00 Build 0)  -->
<svg version="1.1" id="Layer_1" xmlns="http://www.w3.org/2000/svg" xmlns:xlink="http://www.w3.org/1999/xlink" x="0px" y="0px"
	 viewBox="0 0 179.3 64" enable-background="new 0 0 179.3 64" xml:space="preserve">
<g>
	<g>
		<path fill="#00A2E0" d="M84.2,31.1l12.5,0c0,0-2.6,3.4-5.4,7h14.6c2.6-3.4,5-6.5,5.3-7c1.6-2.1,2-4.1,2-5.8V23
			c0-1.2-0.8-1.9-1.9-1.9l-27.1,0c-1.1,0-1.9,0.6-1.9,1.9v6.3C82.3,30.5,83.1,31.1,84.2,31.1z"/>
		<path fill="#00A2E0" d="M3.6,55.5C3.3,56,3.3,56.6,3.5,57c0.2,0.5,0.8,0.7,1.4,0.7l8.9,0c1.1,0,2.1-0.6,2.7-1.5l9.8-15.6H12.9
			C8.3,48,3.7,55.3,3.6,55.5z"/>
		<path fill="#00A2E0" d="M40.1,40.7H27.7c0.3,1.7,2.6,14.6,2.7,15.3c0.2,1.2,0.9,1.7,2,1.7H41c0.8,0,1.2-0.2,1.5-0.7
			c0.3-0.3,0.4-0.8,0.2-1.5L40.1,40.7z"/>
		<path fill="#00A2E0" d="M78.4,23c0-1.3-0.8-1.9-1.9-1.9H69c-1.1,0-1.9,0.6-1.9,1.9l0,14.2L60,24.4c-1.4-2.4-3.8-3.2-6.6-3.3
			l-5.6,0c-1.1,0-1.9,0.6-1.9,1.9v15.2h9.4l1.4,2.5H45.9v15.2c0,1.3,0.8,1.9,1.9,1.9h7.6c1.1,0,1.9-0.6,1.9-1.9V41.6l7.2,12.9
			c1.4,2.3,3.8,3.2,6.6,3.3h5.5c1.1,0,1.9-0.6,1.9-1.9V40.7h-9.3l-1.4-2.5h10.8L78.4,23z"/>
		<path fill="#00A2E0" d="M37,22.9c-0.2-1.2-1-1.8-2.1-1.8h-3.7c-3.9,0-7.3,2-9.2,5.1c0,0-3.5,5.6-7.5,12h25.2L37,22.9z"/>
		<path fill="#00A2E0" d="M111.7,47.8l-13.1,0c0,0,2.6-3.4,5.4-7H89.4c-2.7,3.5-5,6.6-5.2,6.8c-1.9,2.7-2.1,5.4-2.1,7.3
			c0,0.4,0,1.1,0,1.1c0,1.2,0.8,1.9,1.9,1.9h27.7c1.1,0,1.9-0.6,1.9-1.9v-6.3C113.6,48.4,112.8,47.8,111.7,47.8z"/>
	</g>
	<path fill="#00A2E0" d="M146.3,21.1c2.6,0,5.5,2.2,5.5,5.2c0,1.7-0.6,3-1.4,4.2c-0.5,0.8-0.9,1.7-1.1,2.3c-0.2,0.7-0.6,2.5,1.6,2.5
		c1.4,0,4.9-1.2,7.7-4.5c2.1-2.7,3.4-6.1,3.4-9.8c0-8.7-7-15.7-15.7-15.7h0c-8.7,0-15.7,7-15.7,15.7c0,3.7,1.3,7.1,3.4,9.8
		c2.8,3.3,6.3,4.6,7.7,4.5c2.2,0,1.8-1.8,1.6-2.5c-0.2-0.6-0.6-1.5-1.1-2.3c-0.8-1.2-1.4-2.5-1.4-4.2
		C140.9,23.3,143.7,21.1,146.3,21.1L146.3,21.1z M174.1,37c-0.6-0.5-1.8-1.3-4.1-1.7c-3.2-0.5-6.1,0.3-7.8,1c-2.3,0.9-5.1,2.9-7,5.6
		c-2,2.8-3.1,7-2.1,11.4c0.3,1.2,0.6,1.9,1.1,2.8c0.6,1.2,2.2,2.8,3.6,3.1c1.1,0.2,2-0.4,2.4-0.9c2.8-3.2,13.5-15.7,14.6-17.3
		C175.9,39.4,175.2,37.9,174.1,37z M130.4,36.3c-1.7-0.7-4.6-1.4-7.8-1c-2.3,0.3-3.4,1.1-4.1,1.7c-1,0.9-1.8,2.4-0.7,4
		c1.2,1.6,11.8,14.1,14.6,17.3c0.4,0.5,1.3,1.1,2.4,0.9c1.4-0.3,3-1.9,3.6-3.1c0.5-0.9,0.8-1.6,1.1-2.8c1-4.4,0-8.6-2.1-11.4
		C135.5,39.2,132.7,37.2,130.4,36.3z"/>
</g>
</svg>
