<?xml version="1.0" encoding="utf-8"?>
<!-- Generator: Adobe Illustrator 19.2.0, SVG Export Plug-In . SVG Version: 6.00 Build 0)  -->
<svg version="1.1" id="Layer_1" xmlns="http://www.w3.org/2000/svg" xmlns:xlink="http://www.w3.org/1999/xlink" x="0px" y="0px"
	 viewBox="0 0 123 33" style="enable-background:new 0 0 123 33;" xml:space="preserve">
<style type="text/css">
	.st0{fill:#FFFFFF;}
</style>
<g>
	<path class="st0" d="M85.1,4.8V3.9h-4.5v0.9h1.7v8.2h1V4.8H85.1z M73.2,12.9h1v-9h-0.9v6.4h0l-2.3-6.4h-1.1v9h0.9V6h0L73.2,12.9z
		 M61.5,26l1.7-5.2h-1l-1.2,3.9l-1.2-3.9h-1.1l1.7,5.2v3.8h1V26z M59.4,12.9H63v-0.9h-2.6V8.7h2V7.8h-2v-3h2.5V3.9h-3.6V12.9z
		 M52.2,10.9v-7h-1v7c0,0.7-0.3,1.2-1.1,1.2c-0.6,0-1.1-0.4-1.1-1.3v-7h-1V11c0,1.4,0.9,2,2.1,2C51.3,13.1,52.2,12.3,52.2,10.9
		 M26.5,12.9h3.6v-0.9h-2.6V8.7h2V7.8h-2v-3h2.5V3.9h-3.6V12.9z M19.5,12.9l-1.3-4.2c0.7-0.2,1.2-1.1,1.2-2.3c0-1.6-0.7-2.5-2.1-2.5
		h-2v9h1V9h0.9l1.2,3.9H19.5z M17.2,8.2h-0.9V4.8h0.9c0.9,0,1.2,0.8,1.2,1.7C18.3,7.6,18,8.2,17.2,8.2 M5.7,4.8h2.5V3.9H4.7l0,9h1
		V8.7h2V7.8h-2V4.8z M49.5,20.8h-1v9h3.6v-0.9h-2.6V20.8z M73.9,20.8h-3.6v9h3.6v-0.9h-2.6v-3.4h2v-0.9h-2v-3h2.5V20.8z M82.9,20.8
		h-2v9l1,0v-3.9h0.9l1.2,3.9h1l-1.3-4.2c0.7-0.2,1.2-1.1,1.2-2.3C85,21.7,84.3,20.8,82.9,20.8 M82.8,21.7c0.9,0,1.2,0.8,1.2,1.7
		c0,1.1-0.4,1.7-1.1,1.7H82v-3.4H82.8z"/>
	<path class="st0" d="M40.3,10.9c0,0.7-0.4,1.2-1.2,1.2c-0.8,0-1.2-0.5-1.2-1.2V5.9c0-0.7,0.4-1.2,1.1-1.2c0.8,0,1.2,0.5,1.2,1.1
		V10.9z M40.7,12.4c0.4-0.3,0.7-0.9,0.7-1.6V5.8c0-1.4-1-2-2.2-2c-1.3,0-2.2,0.7-2.2,2.1v5c0,1.4,0.9,2.1,2.2,2.1
		c0.2,0,0.4,0,0.6-0.1l1.3,0.9l0.6-0.8L40.7,12.4z M37.5,20.8v9h1v-4.2h2v-0.9h-2v-3h2.5v-0.9H37.5z"/>
	<path class="st0" d="M91.8,3.9l0,6.7c0,0.2,0,0.6,0.1,0.8c1.1,3.5,7.5,2.1,11.6,8c0,0,0.8,0.1,1.3-0.9c0,0-1.1-0.1-1.2-0.9
		c0,0,2.3,0.4,3.6,1.5c0,0,0,0.5-1.6,0.5c-0.3,0-0.4,0-0.9,0.5c0,0-1.3,1.4-2.5,1.3c-0.4,0-0.7-0.2-0.7-0.3c0,0-0.1-0.2,0.2-0.1
		c0,0,0.7,0.2,1-0.1c0,0-0.3-0.4-0.8-0.4c-0.3,0-0.6,0.1-0.8,0.4c0,0-1,1.3,1.9,2.6c4.2,1.8,6.6,4.6,6.2,5.3
		c-0.4-0.3-3.8-4.6-9.7-5.1c0,0,0-0.1,0.1-0.2c0.6-3-0.8-5-2.3-6.1c-1.6-1.3-4.6-2.3-5.5-5.1l0,17.3l28.2,0L91.8,3.9z"/>
</g>
</svg>
